<svg width="32" height="32" viewBox="0 0 32 32" fill="none" xmlns="http://www.w3.org/2000/svg">
<g clip-path="url(#clip0)">
<path d="M20.9305 5H11.0695C7.71746 5 5 7.6498 5 10.9184V20.5339C5 23.8025 7.71746 26.4523 11.0695 26.4523H20.9305C24.2825 26.4523 27 23.8025 27 20.5339V10.9184C27 7.6498 24.2825 5 20.9305 5ZM25.0473 20.5339C25.0473 22.7553 23.1923 24.5482 20.9305 24.5482H11.0695C8.79142 24.5482 6.95266 22.7394 6.95266 20.5339V10.9184C6.95266 8.71289 8.80769 6.90405 11.0695 6.90405H20.9305C23.2086 6.90405 25.0473 8.71289 25.0473 10.9184V20.5339Z" fill="#393939"/>
<path d="M16.0003 10.2041C12.876 10.2041 10.3213 12.6794 10.3213 15.7258C10.3213 18.7723 12.8598 21.2635 16.0003 21.2635C19.1245 21.2635 21.6793 18.7882 21.6793 15.7258C21.6793 12.6794 19.1245 10.2041 16.0003 10.2041ZM16.0003 19.3594C13.95 19.3594 12.274 17.741 12.274 15.7417C12.2902 13.7266 13.95 12.1082 16.0003 12.1082C18.0506 12.1082 19.7266 13.7266 19.7266 15.7258C19.7266 17.7251 18.0506 19.3594 16.0003 19.3594Z" fill="#393939"/>
<path d="M21.9066 8.58594C21.5323 8.58594 21.158 8.72874 20.8977 8.99848C20.6373 9.25235 20.4746 9.6173 20.4746 9.98224C20.4746 10.3472 20.6211 10.7121 20.8977 10.966C21.158 11.2199 21.5323 11.3785 21.9066 11.3785C22.2808 11.3785 22.6551 11.2357 22.9154 10.966C23.1758 10.7121 23.3385 10.3472 23.3385 9.98224C23.3385 9.6173 23.1921 9.25235 22.9154 8.99848C22.6551 8.72874 22.2971 8.58594 21.9066 8.58594Z" fill="#393939"/>
</g>
<defs>
<clipPath id="clip0">
<rect width="22" height="21.4523" fill="white" transform="translate(5 5)"/>
</clipPath>
</defs>
</svg>
