<svg width="32" height="32" viewBox="0 0 32 32" fill="none" xmlns="http://www.w3.org/2000/svg">
<g clipPath="url(#clip0)">
<path d="M9.21545 11.9712H4.27539V26.452H9.21545V11.9712Z" fill="#393939"/>
<path d="M25.4377 13.2941C24.4037 12.1957 23.0251 11.6353 21.3248 11.6353C20.7044 11.6353 20.13 11.7025 19.6015 11.8594C19.096 12.0163 18.6595 12.2181 18.2919 12.4871C17.9472 12.7561 17.6485 13.0026 17.4417 13.2492C17.2349 13.4734 17.0511 13.72 16.8673 14.0114V11.9491H11.9502L11.9732 12.644C11.9732 13.1147 11.9961 14.5494 11.9961 16.9703C11.9961 19.3913 11.9961 22.5295 11.9732 26.4299H16.8903V18.3601C16.8903 17.8669 16.9362 17.4635 17.0511 17.172C17.2579 16.6789 17.5796 16.253 17.9932 15.9167C18.4067 15.5805 18.9352 15.4236 19.5786 15.4236C20.4287 15.4236 21.0721 15.715 21.4627 16.2978C21.8763 16.8806 22.0601 17.6876 22.0601 18.6963V26.4299H26.9772V18.1359C27.0001 16.0064 26.4947 14.3924 25.4377 13.2941Z" fill="#393939"/>
<path d="M6.78022 5C5.95305 5 5.28671 5.24658 4.78122 5.71732C4.25275 6.18806 4 6.77088 4 7.4882C4 8.20551 4.25275 8.78833 4.75824 9.28149C5.26374 9.75223 5.90709 9.99881 6.73427 9.99881H6.75724C7.60739 9.99881 8.27373 9.75223 8.77922 9.28149C9.28472 8.81075 9.53746 8.20551 9.53746 7.4882C9.53746 6.77088 9.26174 6.16564 8.77922 5.6949C8.27373 5.24658 7.60739 5 6.78022 5Z" fill="#393939"/>
</g>
<defs>
<clipPath id="clip0">
<rect width="23" height="21.4523" fill="white" transform="translate(4 5)"/>
</clipPath>
</defs>
</svg>
