<svg width="32" height="32" viewBox="0 0 32 32" fill="none" xmlns="http://www.w3.org/2000/svg">
<g clipPath="url(#clip0)">
<path d="M27.999 8.31499C27.0252 8.71252 26.0272 8.96974 25.0535 9.08666C26.1732 8.4553 26.9035 7.54333 27.3174 6.37414C26.295 6.93535 25.1995 7.33288 24.0554 7.54333C23.033 6.51444 21.7916 6 20.3066 6C18.8948 6 17.6776 6.49106 16.6796 7.44979C15.6815 8.40853 15.1703 9.57772 15.1703 10.934C15.1703 11.3081 15.219 11.6823 15.292 12.0564C13.1986 11.9629 11.2268 11.4484 9.4011 10.5365C7.57539 9.62449 6.01745 8.40853 4.72729 6.91197C4.26478 7.68363 4.02135 8.50206 4.02135 9.39065C4.02135 10.2325 4.21609 11.0275 4.62992 11.729C5.04374 12.4539 5.60363 13.0385 6.28522 13.4828C5.45757 13.4594 4.6786 13.249 3.97266 12.8514V12.9216C3.97266 14.1142 4.36215 15.1431 5.14111 16.055C5.92008 16.9436 6.89379 17.5282 8.08659 17.762C7.64842 17.879 7.18591 17.9257 6.74774 17.9257C6.45562 17.9257 6.13917 17.9023 5.77403 17.8556C6.09048 18.8377 6.69905 19.6561 7.57539 20.2875C8.45173 20.9189 9.44978 21.2462 10.5695 21.2696C8.7195 22.6726 6.57734 23.3742 4.21609 23.3742C3.75358 23.3742 3.33975 23.3508 2.97461 23.304C5.3602 24.7772 7.98922 25.5021 10.8373 25.5021C12.663 25.5021 14.367 25.2215 15.9736 24.6836C17.5803 24.1224 18.9435 23.3975 20.0632 22.4622C21.183 21.5268 22.181 20.4512 22.9843 19.2586C23.812 18.0426 24.4206 16.7799 24.8101 15.4704C25.1995 14.1609 25.4186 12.8281 25.4186 11.5186C25.4186 11.238 25.4186 11.0275 25.3943 10.8872C26.441 10.1623 27.293 9.3205 27.999 8.31499Z" fill="#393939"/>
</g>
<defs>
<clipPath id="clip0">
<rect width="25" height="19.5021" fill="white" transform="translate(3 6)"/>
</clipPath>
</defs>
</svg>
