<svg width="32" height="32" viewBox="0 0 32 32" fill="none" xmlns="http://www.w3.org/2000/svg">
<g clip-path="url(#clip0)">
<path d="M29.9856 13.4594C29.9856 12.9216 29.9376 12.2201 29.8417 11.3783C29.7698 10.5365 29.6499 9.78817 29.506 9.13343C29.3381 8.38515 28.9784 7.77717 28.4269 7.26272C27.8753 6.74828 27.2278 6.46768 26.4844 6.37414C24.1823 6.11692 20.6811 6 16.0048 6C11.3285 6 7.82734 6.11692 5.52518 6.37414C4.78177 6.46768 4.13429 6.74828 3.58273 7.26272C3.03118 7.77717 2.67146 8.38515 2.5036 9.13343C2.33573 9.78817 2.23981 10.5365 2.14388 11.3783C2.07194 12.2201 2.02398 12.9216 2 13.4594C2 14.0206 2 14.7689 2 15.751C2 16.7332 2 17.4814 2.02398 18.0426C2.02398 18.5805 2.07194 19.282 2.16787 20.1238C2.21583 20.9656 2.33573 21.7139 2.47962 22.3686C2.64748 23.1169 3.00719 23.7249 3.55875 24.2393C4.11031 24.7538 4.75779 25.0344 5.5012 25.1279C7.80336 25.3852 11.3046 25.5021 15.9808 25.5021C20.6571 25.5021 24.1583 25.3852 26.4604 25.1279C27.2038 25.0578 27.8513 24.7538 28.4029 24.2393C28.9544 23.7249 29.3141 23.1169 29.482 22.3686C29.6499 21.7139 29.7458 20.9656 29.8417 20.1238C29.9137 19.282 29.9616 18.5805 29.9856 18.0426C29.9856 17.5048 30.0096 16.7332 30.0096 15.751C30.0096 14.7689 30.0096 14.0206 29.9856 13.4594ZM21.5444 16.5695L13.5348 21.4567C13.3909 21.5502 13.223 21.6204 13.0072 21.6204C12.8393 21.6204 12.6954 21.5736 12.5276 21.5034C12.1918 21.3164 12 21.0358 12 20.6382V10.8872C12 10.4897 12.1679 10.2091 12.5276 10.022C12.8873 9.83494 13.223 9.85832 13.5348 10.0454L17.5396 12.489L21.5444 14.9326C21.8561 15.0963 22.024 15.3769 22.024 15.751C22 16.1252 21.8561 16.4058 21.5444 16.5695Z" fill="#393939"/>
</g>
<defs>
<clipPath id="clip0">
<rect width="28.0096" height="19.5021" fill="white" transform="translate(2 6)"/>
</clipPath>
</defs>
</svg>
