<svg width="32" height="32" viewBox="0 0 32 32" fill="none" xmlns="http://www.w3.org/2000/svg">
<path d="M19.8167 30.9478L19.8213 20.6481C19.8778 20.2549 20.1969 19.8995 20.6098 19.825L30.9311 19.8365C31.3252 19.8931 31.6444 19.5376 31.7197 19.0134L31.741 13.2643C31.7975 12.8711 31.441 12.5524 30.9156 12.4769L20.5942 12.4654C20.2002 12.4088 19.8438 12.0901 19.7689 11.678L19.7734 1.37834C19.8299 0.985147 19.4735 0.666396 18.9481 0.590906L13.1869 0.565797C12.7928 0.509179 12.4736 0.864628 12.3983 1.38889L12.3939 11.6886C12.3374 12.0817 12.0182 12.4372 11.6053 12.5116L1.28394 12.5002C0.88988 12.4436 0.5707 12.799 0.495405 13.3233L0.47407 19.0724C0.417598 19.4656 0.774029 19.7843 1.29945 19.8598L11.6208 19.8712C12.0149 19.9279 12.3713 20.2466 12.4462 20.6587L12.4416 30.9583C12.3851 31.3515 12.7416 31.6703 13.267 31.7458L19.0282 31.7709C19.4411 31.6964 19.7602 31.341 19.8167 30.9478Z" fill="#FDD08D"/>
</svg>
